<svg xmlns="http://www.w3.org/2000/svg" viewBox="0 0 512 512" width="512" height="512">
  <defs>
    <radialGradient id="bg" cx="50%" cy="40%" r="65%">
      <stop offset="0%" stop-color="#fce7f3"/>
      <stop offset="50%" stop-color="#f0f9ff"/>
      <stop offset="100%" stop-color="#f0fdf4"/>
    </radialGradient>
    <radialGradient id="glow" cx="50%" cy="50%" r="50%">
      <stop offset="0%" stop-color="#fda4af" stop-opacity="0.5"/>
      <stop offset="100%" stop-color="#fda4af" stop-opacity="0"/>
    </radialGradient>
  </defs>
  <rect width="512" height="512" rx="100" fill="url(#bg)"/>
  <circle cx="256" cy="240" r="130" fill="url(#glow)"/>
  <!-- Torii gate -->
  <rect x="162" y="185" width="188" height="26" rx="13" fill="#f9a8d4" opacity="0.9"/>
  <path d="M148 185 Q256 147 364 185" fill="none" stroke="#f9a8d4" stroke-width="14" stroke-linecap="round" opacity="0.8"/>
  <rect x="178" y="211" width="156" height="18" rx="9" fill="#f9a8d4" opacity="0.75"/>
  <rect x="192" y="229" width="32" height="158" rx="16" fill="#f9a8d4" opacity="0.85"/>
  <rect x="288" y="229" width="32" height="158" rx="16" fill="#f9a8d4" opacity="0.85"/>
  <rect x="172" y="306" width="168" height="16" rx="8" fill="#f9a8d4" opacity="0.6"/>
  <!-- Stars -->
  <circle cx="128" cy="120" r="8" fill="#c4b5fd" opacity="0.8"/>
  <circle cx="384" cy="108" r="9" fill="#86efac" opacity="0.8"/>
  <circle cx="415" cy="168" r="7" fill="#fda4af" opacity="0.7"/>
  <circle cx="94" cy="182" r="5.5" fill="#fde68a" opacity="0.7"/>
  <circle cx="160" cy="92" r="5" fill="#fda4af" opacity="0.6"/>
  <circle cx="352" cy="85" r="6" fill="#c4b5fd" opacity="0.6"/>
  <!-- Bottom petals -->
  <ellipse cx="160" cy="428" rx="32" ry="18" fill="#fda4af" opacity="0.5" transform="rotate(-20 160 428)"/>
  <ellipse cx="256" cy="448" rx="36" ry="20" fill="#c4b5fd" opacity="0.45" transform="rotate(5 256 448)"/>
  <ellipse cx="352" cy="424" rx="32" ry="18" fill="#86efac" opacity="0.5" transform="rotate(25 352 424)"/>
</svg>
