<svg xmlns="http://www.w3.org/2000/svg" viewBox="0 0 192 192" width="192" height="192">
  <defs>
    <radialGradient id="bg" cx="50%" cy="40%" r="65%">
      <stop offset="0%" stop-color="#fce7f3"/>
      <stop offset="50%" stop-color="#f0f9ff"/>
      <stop offset="100%" stop-color="#f0fdf4"/>
    </radialGradient>
    <radialGradient id="glow" cx="50%" cy="50%" r="50%">
      <stop offset="0%" stop-color="#fda4af" stop-opacity="0.5"/>
      <stop offset="100%" stop-color="#fda4af" stop-opacity="0"/>
    </radialGradient>
  </defs>
  <rect width="192" height="192" rx="40" fill="url(#bg)"/>
  <circle cx="96" cy="90" r="48" fill="url(#glow)"/>
  <!-- Torii gate -->
  <rect x="62" y="70" width="68" height="10" rx="5" fill="#f9a8d4" opacity="0.9"/>
  <path d="M56 70 Q96 55 136 70" fill="none" stroke="#f9a8d4" stroke-width="5" stroke-linecap="round" opacity="0.8"/>
  <rect x="68" y="80" width="56" height="7" rx="3.5" fill="#f9a8d4" opacity="0.75"/>
  <rect x="72" y="87" width="12" height="58" rx="6" fill="#f9a8d4" opacity="0.85"/>
  <rect x="108" y="87" width="12" height="58" rx="6" fill="#f9a8d4" opacity="0.85"/>
  <rect x="65" y="115" width="62" height="6" rx="3" fill="#f9a8d4" opacity="0.6"/>
  <!-- Stars -->
  <circle cx="48" cy="45" r="3" fill="#c4b5fd" opacity="0.8"/>
  <circle cx="144" cy="40" r="3.5" fill="#86efac" opacity="0.8"/>
  <circle cx="155" cy="62" r="2.5" fill="#fda4af" opacity="0.7"/>
  <circle cx="35" cy="68" r="2" fill="#fde68a" opacity="0.7"/>
  <!-- Bottom petals -->
  <ellipse cx="60" cy="160" rx="12" ry="7" fill="#fda4af" opacity="0.55" transform="rotate(-20 60 160)"/>
  <ellipse cx="96" cy="168" rx="14" ry="8" fill="#c4b5fd" opacity="0.5" transform="rotate(5 96 168)"/>
  <ellipse cx="132" cy="158" rx="12" ry="7" fill="#86efac" opacity="0.55" transform="rotate(25 132 158)"/>
</svg>
